<?xml version="1.0" encoding="utf-8"?>
<!-- Generator: Adobe Illustrator 22.1.0, SVG Export Plug-In . SVG Version: 6.00 Build 0)  -->
<svg version="1.1" id="图层_1" xmlns="http://www.w3.org/2000/svg" xmlns:xlink="http://www.w3.org/1999/xlink" x="0px" y="0px"
	 viewBox="0 0 580 260" style="enable-background:new 0 0 580 260;" xml:space="preserve">
<style type="text/css">
	.st0{fill:#FFFFFF;stroke:#0097E7;stroke-width:2;stroke-miterlimit:10;}
	.st1{fill:#FFFFFF;}
	.st2{fill:#D3EAFA;stroke:#0097E7;stroke-width:2;stroke-miterlimit:10;}
	.st3{fill:#0097E7;}
	.st4{fill:#0197E6;}
</style>
<g>
	<path class="st0" d="M399.6,212.1H185.1c-4.4,0-8-3.6-8-8V69.5c0-4.4,3.6-8,8-8h214.5c4.4,0,8,3.6,8,8v134.6
		C407.6,208.5,404,212.1,399.6,212.1z"/>
	<rect x="187" y="71.9" class="st0" width="210.7" height="129.9"/>
</g>
<ellipse class="st1" cx="368.1" cy="167.7" rx="3" ry="3"/>
<circle class="st1" cx="377.5" cy="167.7" r="3"/>
<circle class="st1" cx="386.9" cy="167.7" r="3"/>
<path class="st2" d="M455.9,168.2c0-4.4-3.6-8-8-8h-82c-4.4,0-8,3.6-8,8v7.1h98V168.2z"/>
<path class="st0" d="M365.9,231.6h82c4.4,0,8-3.6,8-8v-48.4h-98v48.4C357.9,228,361.5,231.6,365.9,231.6z"/>
<g>
	<rect x="383.2" y="198.6" class="st3" width="7.3" height="17.5"/>
	<rect x="396.2" y="193.8" class="st3" width="7.3" height="22.2"/>
	<rect x="409.2" y="187.7" class="st3" width="7.3" height="28.3"/>
	<rect x="422.2" y="182" class="st3" width="7.3" height="34.1"/>
	<rect x="379.2" y="216.1" class="st3" width="55.3" height="1"/>
</g>
<polyline class="st0" points="256.5,232.5 266.5,212.6 316.8,212.6 326.8,232.5 "/>
<path class="st0" d="M342.2,242.7h-99.6c-2.7,0-4.9-2.2-4.9-4.9l0,0c0-2.7,2.2-4.9,4.9-4.9h99.6c2.7,0,4.9,2.2,4.9,4.9l0,0
	C347,240.5,344.8,242.7,342.2,242.7z"/>
<path class="st0" d="M206.4,198.9L206.4,198.9c0-0.5,0-1.1,0-1.6c0-17.5-14.2-31.6-31.6-31.6c-12.4,0-23.1,7.1-28.3,17.5
	c-3-1.3-6.4-2-9.9-2c-13.9,0-25.2,11.3-25.2,25.2c0,12.9,9.7,23.5,22.2,25v0.2h72.8c9,0,16.3-7.3,16.3-16.3S215.4,198.9,206.4,198.9
	z"/>
<g>
	<path class="st4" d="M203.1,127.7h1.4v13.9h-1.4V127.7z"/>
	<path class="st4" d="M227.4,127.7h1.4v13.9h-1.4V127.7z"/>
	<path class="st4" d="M247.6,127.7h1.4v13.9h-1.4V127.7z"/>
	<path class="st4" d="M271.9,127.7h1.4v13.9h-1.4V127.7z"/>
	<path class="st4" d="M231.4,124h1.4v19.4h-1.4V124z"/>
	<path class="st4" d="M243.6,122.1h1.4v23.1h-1.4V122.1z"/>
	<path class="st4" d="M235.5,128.6h1.4v11.1h-1.4V128.6z"/>
	<path class="st4" d="M239.5,126.8h1.4v15.7h-1.4V126.8z"/>
	<path class="st4" d="M199,122.1h1.4v23.1H199V122.1z"/>
	<path class="st4" d="M195,128.6h1.4v11.1H195V128.6z"/>
	<path class="st4" d="M207.1,124h1.4v20.4h-1.4V124z"/>
	<path class="st4" d="M223.3,124h1.4v20.4h-1.4V124z"/>
	<path class="st4" d="M251.7,124h1.4v21.3h-1.4V124z"/>
	<path class="st4" d="M267.9,124h1.4v20.4h-1.4V124z"/>
	<path class="st4" d="M211.2,122.1h1.4v24.1h-1.4V122.1z"/>
	<path class="st4" d="M219.3,121.2h1.4V148h-1.4V121.2z"/>
	<path class="st4" d="M255.7,120.3h1.4v27.8h-1.4L255.7,120.3L255.7,120.3z"/>
	<path class="st4" d="M263.8,120.3h1.4v27.8h-1.4V120.3z"/>
	<path class="st4" d="M215.2,113.8h1.4v40.7h-1.4V113.8z"/>
	<path class="st4" d="M259.8,115.7h1.4v37h-1.4V115.7z"/>
</g>
<g>
	<path class="st4" d="M316,127.7h1.4v13.9H316V127.7z"/>
	<path class="st4" d="M340.3,127.7h1.4v13.9h-1.4V127.7z"/>
	<path class="st4" d="M360.5,127.7h1.4v13.9h-1.4V127.7z"/>
	<path class="st4" d="M384.8,127.7h1.4v13.9h-1.4V127.7z"/>
	<path class="st4" d="M344.3,124h1.4v19.4h-1.4V124z"/>
	<path class="st4" d="M356.5,122.1h1.4v23.1h-1.4V122.1z"/>
	<path class="st4" d="M348.4,128.6h1.4v11.1h-1.4V128.6z"/>
	<path class="st4" d="M352.4,126.8h1.4v15.7h-1.4V126.8z"/>
	<path class="st4" d="M311.9,122.1h1.4v23.1h-1.4V122.1z"/>
	<path class="st4" d="M307.9,128.6h1.4v11.1h-1.4V128.6z"/>
	<path class="st4" d="M320,124h1.4v20.4H320V124z"/>
	<path class="st4" d="M336.2,124h1.4v20.4h-1.4V124z"/>
	<path class="st4" d="M364.6,124h1.4v21.3h-1.4V124z"/>
	<path class="st4" d="M380.8,124h1.4v20.4h-1.4V124z"/>
	<path class="st4" d="M324.1,122.1h1.4v24.1h-1.4V122.1z"/>
	<path class="st4" d="M332.2,121.2h1.4V148h-1.4V121.2z"/>
	<path class="st4" d="M368.6,120.3h1.4v27.8h-1.4V120.3z"/>
	<path class="st4" d="M376.7,120.3h1.4v27.8h-1.4V120.3z"/>
	<path class="st4" d="M328.1,113.8h1.4v40.7h-1.4V113.8z"/>
	<path class="st4" d="M372.7,115.7h1.4v37h-1.4V115.7z"/>
</g>
<g>
	<path class="st3" d="M277,134.2c0,3.1,1.1,5.8,3.4,8.1c2.2,2.2,4.9,3.4,8.1,3.4s5.8-1.1,8.1-3.4c2.2-2.2,3.4-4.9,3.4-8.1v-7.6h-23
		V134.2z"/>
	<path class="st3" d="M309,129.6c0-0.6-0.2-1.2-0.7-1.6c-0.5-0.5-1-0.7-1.6-0.7s-1.2,0.2-1.6,0.7s-0.7,1-0.7,1.6v4.6
		c0,4.4-1.6,8.2-4.7,11.3s-6.9,4.7-11.3,4.7s-8.2-1.6-11.3-4.7c-3.1-3.1-4.7-6.9-4.7-11.3v-4.6c0-0.6-0.2-1.2-0.7-1.6
		c-0.5-0.5-1-0.7-1.6-0.7s-1.2,0.2-1.6,0.7s-0.7,1-0.7,1.6v4.6c0,5.3,1.8,9.8,5.3,13.7s7.9,6.1,13,6.7v4.7H277
		c-0.6,0-1.2,0.2-1.6,0.7s-0.7,1-0.7,1.6s0.2,1.2,0.7,1.6s1,0.7,1.6,0.7h22.9c0.6,0,1.2-0.2,1.6-0.7s0.7-1,0.7-1.6s-0.2-1.2-0.7-1.6
		s-1-0.7-1.6-0.7h-9.1v-4.7c5.2-0.6,9.5-2.8,13-6.7s5.3-8.5,5.3-13.7L309,129.6L309,129.6z"/>
	<g>
		<path class="st3" d="M288.4,106.5c2.6,0,4.8,0.9,6.7,2.8c1.9,1.9,2.8,4,2.8,6.7v8.7H279V116c0-2.6,0.9-4.8,2.8-6.7
			C283.6,107.4,285.8,106.5,288.4,106.5 M288.4,104.5c-3.1,0-5.8,1.1-8.1,3.4c-2.2,2.2-3.4,4.9-3.4,8.1v10.7h22.9V116
			c0-3.1-1.1-5.8-3.4-8.1C294.3,105.6,291.6,104.5,288.4,104.5L288.4,104.5z"/>
	</g>
</g>
</svg>
